<?xml version="1.0"?>
<svg xmlns="http://www.w3.org/2000/svg" viewBox="0 0 512 512" width="512" height="512"><g id="_05-destination" data-name="05-destination"><g id="linear_color" data-name="linear color"><path d="M403.89,332H388V304h12a12,12,0,0,0,12-12V252a12,12,0,0,0-12-12H336a12,12,0,0,0-9.37,4.5l-16,20a12,12,0,0,0,0,14.992l16,20A12,12,0,0,0,336,304h28v28H266.839a108.906,108.906,0,0,0,3.58-26.6A134.149,134.149,0,0,0,224.142,204H360a12,12,0,0,0,0-24H184.392A133.737,133.737,0,0,0,136,170.984c-74.119,0-134.419,60.3-134.419,134.419,0,84.164,121.17,195.765,126.328,200.475a12,12,0,0,0,16.182,0c4.167-3.805,84.038-77.373,114.58-149.878H403.89a64.11,64.11,0,0,1,.174,128.22l-204.11.78A12,12,0,0,0,200,509h.047l204.1-.78A88.11,88.11,0,0,0,403.89,332Zm-68.523-60,6.4-8H388v16H341.768ZM136,480.432C109.266,454.332,25.581,367.64,25.581,305.4a110.419,110.419,0,0,1,220.838,0c0,10.473-2.382,21.644-6.46,33.1a11.915,11.915,0,0,0-1.014,2.758C217.841,397.134,157.86,459.072,136,480.432Z"/><path d="M320,470.152A43.969,43.969,0,0,0,396,440c0-10.742-4.709-25.077-12.29-37.411C378.3,393.779,366.976,379,352,379s-26.3,14.779-31.71,23.589c-.1.161-.192.327-.29.488-.1-.161-.191-.327-.29-.488C314.3,393.779,302.976,379,288,379s-26.3,14.779-31.71,23.589C248.709,414.923,244,429.258,244,440a43.969,43.969,0,0,0,76,30.152Zm20.036-53.829c5.259-8.966,10.248-12.773,11.964-13.29,1.716.517,6.7,4.324,11.964,13.29C368.771,424.518,372,434.033,372,440a20,20,0,0,1-40,0C332,434.033,335.229,424.518,340.036,416.323ZM268,440c0-5.967,3.229-15.482,8.036-23.677,5.259-8.966,10.248-12.773,11.964-13.29,1.716.517,6.7,4.324,11.964,13.29C304.771,424.518,308,434.033,308,440a20,20,0,0,1-40,0Z"/><path d="M136,217.4a88,88,0,1,0,88,88A88.1,88.1,0,0,0,136,217.4Zm0,152a64,64,0,1,1,64-64A64.072,64.072,0,0,1,136,369.4Z"/><path d="M417.633,202.472a12,12,0,0,0,14.734,0,323.227,323.227,0,0,0,37.553-35.445C495.852,138.214,509,111.962,509,89a84,84,0,0,0-168,0c0,22.962,13.148,49.214,39.08,78.027A323.227,323.227,0,0,0,417.633,202.472ZM425,29a60.068,60.068,0,0,1,60,60c0,30.588-38.281,69.814-60,88.47-21.723-18.659-60-57.884-60-88.47A60.068,60.068,0,0,1,425,29Z"/><path d="M465,89a40,40,0,1,0-40,40A40.045,40.045,0,0,0,465,89Zm-56,0a16,16,0,1,1,16,16A16.019,16.019,0,0,1,409,89Z"/><path d="M239.9,179a35.952,35.952,0,0,0,24.1-9.25A36.076,36.076,0,0,0,324.2,142.9c0-16.739-15.244-48.9-36.1-48.9-9.5,0-17.837,6.688-24.1,15.544C257.738,100.688,249.406,94,239.9,94c-20.854,0-36.1,32.162-36.1,48.9A36.139,36.139,0,0,0,239.9,179Zm48.2-60.571c4.472,3.226,12.1,16.4,12.1,24.472a12.1,12.1,0,1,1-24.2,0C276,134.83,283.626,121.655,288.1,118.429Zm-48.2,0c4.473,3.226,12.1,16.4,12.1,24.472a12.1,12.1,0,1,1-24.2,0C227.8,134.83,235.429,121.655,239.9,118.429Z"/></g></g></svg>
