<svg enable-background="new 0 0 36 36" height="512" viewBox="0 0 36 36" width="512" xmlns="http://www.w3.org/2000/svg"><path d="m27.417 3.914c-6.915.129-11.732-3.365-15.064-3.302s-10.296 2.109-10.009 17.44 9.744 17.404 13.41 17.336c17.163-.321 23.911-31.703 11.663-31.474z" fill="#efefef"/><path d="m28 6.75h-11.25c-1.105 0-2 .895-2 2v1.5 12.5 1.5c0 1.105.895 2 2 2h4 7.25z" fill="#f3f3f1"/><path d="m17 24.25v-1.5-12.5-1.5c0-1.105.895-2 2-2h-2.25c-1.105 0-2 .895-2 2v1.5 12.5 1.5c0 1.105.895 2 2 2h2.25c-1.105 0-2-.895-2-2z" fill="#d5dbe1"/><path d="m20.75 10v18c0 .69.56 1.25 1.25 1.25.14 0 .27-.02.4-.06l6-2c.49-.17.85-.64.85-1.19v-18c0-.69-.56-1.25-1.25-1.25-.14 0-.27.02-.4.06l-6 2c-.49.17-.85.64-.85 1.19z" fill="#2fdf84"/><path d="m23 27.75v-18c0-.55.36-1.02.85-1.19l4.801-1.6c-.192-.122-.407-.21-.651-.21-.14 0-.27.02-.4.06l-6 2c-.49.17-.85.64-.85 1.19v18c0 .69.56 1.25 1.25 1.25.14 0 .27-.02.4-.06l1.199-.4c-.352-.221-.599-.594-.599-1.04z" fill="#00b871"/><g fill="#a4afc1"><path d="m11.144 2.967h1v2h-1z" transform="matrix(.707 -.707 .707 .707 .605 9.395)"/><path d="m10.467 7.533h2v1h-2z" transform="matrix(.707 -.707 .707 .707 -2.322 10.461)"/><path d="m14.533 3.467h2v1h-2z" transform="matrix(.707 -.707 .707 .707 1.745 12.146)"/><path d="m29.62 32.25c-.827 0-1.5-.673-1.5-1.5s.673-1.5 1.5-1.5 1.5.673 1.5 1.5-.673 1.5-1.5 1.5zm0-2c-.275 0-.5.225-.5.5s.225.5.5.5.5-.225.5-.5-.224-.5-.5-.5z"/></g><path d="m6.75 15.75h9.5v1.5h-9.5z"/><path d="m13.03 20.78-1.06-1.06 3.22-3.22-3.22-3.22 1.061-1.061 3.75 3.75c.293.293.293.768 0 1.061z"/><path d="m22 30c-1.103 0-2-.897-2-2v-18c0-.854.544-1.618 1.354-1.898l6.009-2.004c1.356-.414 2.637.586 2.637 1.902v18c0 .853-.543 1.616-1.353 1.898l-6.01 2.004c-.22.068-.423.098-.637.098zm6-22.5c-.064 0-.12.008-.181.026l-5.982 1.995c-.194.068-.337.266-.337.479v18c-.001.34.359.569.681.474l5.982-1.995c.194-.068.337-.266.337-.479v-18c0-.275-.225-.5-.5-.5z"/><path d="m15.5 10.25h-1.5v-1.5c0-1.517 1.233-2.75 2.75-2.75h11.25v1.5h-11.25c-.689 0-1.25.561-1.25 1.25z"/><path d="m20.75 27h-4c-1.517 0-2.75-1.233-2.75-2.75v-1.5h1.5v1.5c0 .689.561 1.25 1.25 1.25h4z"/></svg>